<svg width="952" height="248" xmlns="http://www.w3.org/2000/svg" xmlns:xlink="http://www.w3.org/1999/xlink" xml:space="preserve" overflow="hidden"><defs><clipPath id="clip0"><path d="M156.969 385.032 134.821 422.537 97.412 400.331 119.561 362.825Z" fill-rule="nonzero" clip-rule="nonzero"/></clipPath><clipPath id="clip1"><path d="M156.969 385.032 134.821 422.537 97.412 400.331 119.561 362.825Z" fill-rule="evenodd" clip-rule="evenodd"/></clipPath><clipPath id="clip2"><path d="M156.969 385.032 134.821 422.537 97.412 400.331 119.561 362.825Z" fill-rule="evenodd" clip-rule="evenodd"/></clipPath><clipPath id="clip3"><path d="M320.986 385.032 298.837 422.537 261.428 400.331 283.577 362.825Z" fill-rule="nonzero" clip-rule="nonzero"/></clipPath><clipPath id="clip4"><path d="M320.986 385.032 298.837 422.537 261.428 400.331 283.577 362.825Z" fill-rule="evenodd" clip-rule="evenodd"/></clipPath><clipPath id="clip5"><path d="M320.986 385.032 298.837 422.537 261.428 400.331 283.577 362.825Z" fill-rule="evenodd" clip-rule="evenodd"/></clipPath><clipPath id="clip6"><path d="M477.612 385.777 455.463 423.282 418.054 401.076 440.204 363.57Z" fill-rule="nonzero" clip-rule="nonzero"/></clipPath><clipPath id="clip7"><path d="M477.612 385.777 455.463 423.282 418.054 401.076 440.204 363.57Z" fill-rule="evenodd" clip-rule="evenodd"/></clipPath><clipPath id="clip8"><path d="M477.612 385.777 455.463 423.282 418.054 401.076 440.204 363.57Z" fill-rule="evenodd" clip-rule="evenodd"/></clipPath><clipPath id="clip9"><path d="M653.562 385.777 631.416 423.282 594.007 401.076 616.157 363.57Z" fill-rule="nonzero" clip-rule="nonzero"/></clipPath><clipPath id="clip10"><path d="M653.562 385.777 631.416 423.282 594.007 401.076 616.157 363.57Z" fill-rule="evenodd" clip-rule="evenodd"/></clipPath><clipPath id="clip11"><path d="M653.562 385.777 631.416 423.282 594.007 401.076 616.157 363.57Z" fill-rule="evenodd" clip-rule="evenodd"/></clipPath><clipPath id="clip12"><path d="M818.522 385.88 796.372 423.385 758.967 401.179 781.113 363.673Z" fill-rule="nonzero" clip-rule="nonzero"/></clipPath><clipPath id="clip13"><path d="M818.522 385.88 796.372 423.385 758.967 401.179 781.113 363.673Z" fill-rule="evenodd" clip-rule="evenodd"/></clipPath><clipPath id="clip14"><path d="M818.522 385.88 796.372 423.385 758.967 401.179 781.113 363.673Z" fill-rule="evenodd" clip-rule="evenodd"/></clipPath></defs><g transform="translate(-4 -236)"><g><path d="M129.834 155.295C129.834 146.634 136.854 139.613 145.515 139.613L911.701 139.613C920.361 139.613 927.382 146.634 927.382 155.295L927.382 218.019C927.382 226.68 920.361 233.7 911.701 233.7L145.515 233.7C136.854 233.7 129.834 226.68 129.834 218.019Z" fill="#E2F0D9" fill-rule="evenodd" fill-opacity="0.501961" transform="matrix(1 0 0 1.00191 -76.2607 98.485)"/><g><g><g><g><path d="M44.8718 390.202C44.8718 386.506 47.8661 383.511 51.5598 383.511L178.086 383.511C181.78 383.511 184.774 386.506 184.774 390.202L184.774 416.951C184.774 420.647 181.78 423.638 178.086 423.638L51.5598 423.638C47.8661 423.638 44.8718 420.647 44.8718 416.951Z" stroke="#FFFFFF" stroke-width="1.86401" stroke-linecap="butt" stroke-linejoin="miter" stroke-miterlimit="8" stroke-opacity="1" fill="#DFEDF9" fill-rule="evenodd" fill-opacity="1" transform="matrix(1 0 0 1.00261 7.86196 -41.7353)"/><text fill="#595959" fill-opacity="1" font-family="Avenir Medium,Avenir Medium_MSFontService,sans-serif" font-style="normal" font-variant="normal" font-weight="500" font-stretch="normal" font-size="48" text-anchor="start" direction="ltr" writing-mode="lr-tb" unicode-bidi="normal" text-decoration="none" transform="matrix(0.271129 0 0 0.271838 91.9546 367)">Alignment</text><path d="M209.447 390.202C209.447 386.506 212.441 383.511 216.135 383.511L342.659 383.511C346.355 383.511 349.35 386.506 349.35 390.202L349.35 416.951C349.35 420.647 346.355 423.638 342.659 423.638L216.135 423.638C212.441 423.638 209.447 420.647 209.447 416.951Z" stroke="#FFFFFF" stroke-width="1.86401" stroke-linecap="butt" stroke-linejoin="miter" stroke-miterlimit="8" stroke-opacity="1" fill="#DFEDF9" fill-rule="evenodd" fill-opacity="1" transform="matrix(1 0 0 1.00261 7.86196 -41.7353)"/><text fill="#595959" fill-opacity="1" font-family="Avenir Medium,Avenir Medium_MSFontService,sans-serif" font-style="normal" font-variant="normal" font-weight="500" font-stretch="normal" font-size="48" text-anchor="start" direction="ltr" writing-mode="lr-tb" unicode-bidi="normal" text-decoration="none" transform="matrix(0.271129 0 0 0.271838 232.628 367)">QC / best practice</text><path d="M374.022 390.202C374.022 386.506 377.016 383.511 380.712 383.511L507.238 383.511C510.93 383.511 513.925 386.506 513.925 390.202L513.925 416.951C513.925 420.647 510.93 423.638 507.238 423.638L380.712 423.638C377.016 423.638 374.022 420.647 374.022 416.951Z" stroke="#FFFFFF" stroke-width="1.86401" stroke-linecap="butt" stroke-linejoin="miter" stroke-miterlimit="8" stroke-opacity="1" fill="#DFEDF9" fill-rule="evenodd" fill-opacity="1" transform="matrix(1 0 0 1.00261 7.86196 -41.7353)"/><text fill="#595959" fill-opacity="1" font-family="Avenir Medium,Avenir Medium_MSFontService,sans-serif" font-style="normal" font-variant="normal" font-weight="500" font-stretch="normal" font-size="48" text-anchor="start" direction="ltr" writing-mode="lr-tb" unicode-bidi="normal" text-decoration="none" transform="matrix(0.271129 0 0 0.271838 402.788 359)">Haplotype call &amp; </text><text fill="#595959" fill-opacity="1" font-family="Avenir Medium,Avenir Medium_MSFontService,sans-serif" font-style="normal" font-variant="normal" font-weight="500" font-stretch="normal" font-size="48" text-anchor="start" direction="ltr" writing-mode="lr-tb" unicode-bidi="normal" text-decoration="none" transform="matrix(0.271129 0 0 0.271838 428.728 375)">filtering</text><g clip-path="url(#clip0)"><g clip-path="url(#clip1)"><g clip-path="url(#clip2)"><path d="M97.7056 435.742C97.5778 435.957 97.649 436.237 97.8641 436.362 98.0219 436.456 98.2212 436.446 98.3679 436.335 102.047 433.58 106.227 431.57 110.676 430.413 116.996 428.727 126.446 428.383 135.694 436.22 135.695 436.224 135.694 436.224 135.692 436.224 135.692 436.224 135.691 436.224 135.69 436.224L127.558 438.311C127.317 438.375 127.175 438.625 127.241 438.864 127.306 439.1 127.546 439.242 127.783 439.188L137.089 436.804C137.331 436.74 137.477 436.494 137.415 436.251L135.03 426.947C134.964 426.707 134.715 426.562 134.474 426.63 134.239 426.694 134.097 426.933 134.153 427.172L136.296 435.532C136.296 435.532 136.295 435.536 136.292 435.536 136.291 435.539 136.289 435.536 136.288 435.536 126.741 427.439 116.974 427.796 110.443 429.536 105.881 430.72 101.595 432.787 97.823 435.613 97.7758 435.647 97.736 435.691 97.7056 435.742Z" fill="#000000" fill-rule="nonzero" fill-opacity="1" transform="matrix(1 0 0 1.00261 7.86196 -41.7353)"/></g></g></g><text fill="#000000" fill-opacity="1" font-family="Avenir Light,Avenir Light_MSFontService,sans-serif" font-style="normal" font-variant="normal" font-weight="300" font-stretch="normal" font-size="46" text-anchor="start" direction="ltr" writing-mode="lr-tb" unicode-bidi="normal" text-decoration="none" transform="matrix(0.271129 0 0 0.271838 28.9624 415)">FASTQ</text><text fill="#000000" fill-opacity="1" font-family="Avenir Light,Avenir Light_MSFontService,sans-serif" font-style="normal" font-variant="normal" font-weight="300" font-stretch="normal" font-size="46" text-anchor="start" direction="ltr" writing-mode="lr-tb" unicode-bidi="normal" text-decoration="none" transform="matrix(0.271129 0 0 0.271838 18.5548 430)">(RNA</text><text fill="#000000" fill-opacity="1" font-family="Avenir Light,Avenir Light_MSFontService,sans-serif" font-style="normal" font-variant="normal" font-weight="300" font-stretch="normal" font-size="46" text-anchor="start" direction="ltr" writing-mode="lr-tb" unicode-bidi="normal" text-decoration="none" transform="matrix(0.271129 0 0 0.271838 47.2919 430)">-</text><text fill="#000000" fill-opacity="1" font-family="Avenir Light,Avenir Light_MSFontService,sans-serif" font-style="normal" font-variant="normal" font-weight="300" font-stretch="normal" font-size="46" text-anchor="start" direction="ltr" writing-mode="lr-tb" unicode-bidi="normal" text-decoration="none" transform="matrix(0.271129 0 0 0.271838 51.486 430)">seq</text><text fill="#000000" fill-opacity="1" font-family="Avenir Light,Avenir Light_MSFontService,sans-serif" font-style="normal" font-variant="normal" font-weight="300" font-stretch="normal" font-size="46" text-anchor="start" direction="ltr" writing-mode="lr-tb" unicode-bidi="normal" text-decoration="none" transform="matrix(0.271129 0 0 0.271838 74.4753 430)">/ </text><text fill="#000000" fill-opacity="1" font-family="Avenir Light,Avenir Light_MSFontService,sans-serif" font-style="normal" font-variant="normal" font-weight="300" font-stretch="normal" font-size="46" text-anchor="start" direction="ltr" writing-mode="lr-tb" unicode-bidi="normal" text-decoration="none" transform="matrix(0.271129 0 0 0.271838 18.7848 444)">ATAC</text><text fill="#000000" fill-opacity="1" font-family="Avenir Light,Avenir Light_MSFontService,sans-serif" font-style="normal" font-variant="normal" font-weight="300" font-stretch="normal" font-size="46" text-anchor="start" direction="ltr" writing-mode="lr-tb" unicode-bidi="normal" text-decoration="none" transform="matrix(0.271129 0 0 0.271838 51.7157 444)">-</text><text fill="#000000" fill-opacity="1" font-family="Avenir Light,Avenir Light_MSFontService,sans-serif" font-style="normal" font-variant="normal" font-weight="300" font-stretch="normal" font-size="46" text-anchor="start" direction="ltr" writing-mode="lr-tb" unicode-bidi="normal" text-decoration="none" transform="matrix(0.271129 0 0 0.271838 55.9098 444)">seq</text><text fill="#000000" fill-opacity="1" font-family="Avenir Light,Avenir Light_MSFontService,sans-serif" font-style="normal" font-variant="normal" font-weight="300" font-stretch="normal" font-size="46" text-anchor="start" direction="ltr" writing-mode="lr-tb" unicode-bidi="normal" text-decoration="none" transform="matrix(0.271129 0 0 0.271838 75.6374 444)">)</text><text fill="#000000" fill-opacity="1" font-family="Avenir Light,Avenir Light_MSFontService,sans-serif" font-style="normal" font-variant="normal" font-weight="300" font-stretch="normal" font-size="46" text-anchor="start" direction="ltr" writing-mode="lr-tb" unicode-bidi="normal" text-decoration="none" transform="matrix(0.271129 0 0 0.271838 188.747 412)">BAM</text><g clip-path="url(#clip3)"><g clip-path="url(#clip4)"><g clip-path="url(#clip5)"><path d="M261.723 435.742C261.595 435.957 261.666 436.237 261.881 436.362 262.039 436.456 262.238 436.446 262.385 436.335 266.064 433.58 270.245 431.57 274.694 430.413 281.012 428.727 290.463 428.383 299.711 436.22 299.711 436.224 299.711 436.224 299.709 436.224 299.709 436.224 299.709 436.224 299.706 436.224L291.575 438.311C291.334 438.375 291.193 438.625 291.258 438.864 291.323 439.1 291.564 439.242 291.8 439.185L301.105 436.804C301.349 436.74 301.493 436.494 301.433 436.251L299.047 426.947C298.982 426.707 298.733 426.562 298.491 426.63 298.256 426.694 298.115 426.933 298.171 427.172L300.313 435.532C300.313 435.532 300.311 435.536 300.311 435.536 300.308 435.536 300.305 435.536 300.305 435.536 290.759 427.439 280.993 427.796 274.459 429.536 269.898 430.72 265.612 432.787 261.84 435.613 261.793 435.647 261.753 435.691 261.723 435.742Z" fill="#000000" fill-rule="nonzero" fill-opacity="1" transform="matrix(1 0 0 1.00261 7.86196 -41.7353)"/></g></g></g><g clip-path="url(#clip6)"><g clip-path="url(#clip7)"><g clip-path="url(#clip8)"><path d="M418.351 436.487C418.222 436.703 418.293 436.979 418.506 437.107 418.664 437.202 418.863 437.192 419.012 437.08 422.691 434.325 426.872 432.312 431.317 431.159 437.637 429.472 447.089 429.128 456.336 436.962 456.336 436.966 456.336 436.969 456.336 436.969 456.336 436.969 456.336 436.969 456.333 436.969L448.202 439.053C447.959 439.121 447.818 439.37 447.882 439.61 447.949 439.846 448.189 439.987 448.425 439.93L457.732 437.546C457.975 437.482 458.12 437.235 458.056 436.996L455.672 427.688C455.608 427.449 455.358 427.307 455.119 427.371 454.883 427.439 454.741 427.675 454.798 427.914L456.94 436.274C456.94 436.278 456.936 436.278 456.936 436.281 456.933 436.281 456.93 436.281 456.93 436.278 447.386 428.184 437.617 428.542 431.084 430.278 426.525 431.465 422.239 433.529 418.465 436.355 418.421 436.389 418.378 436.436 418.351 436.487Z" fill="#000000" fill-rule="nonzero" fill-opacity="1" transform="matrix(1 0 0 1.00261 7.86196 -41.7353)"/></g></g></g><text fill="#000000" fill-opacity="1" font-family="Avenir Light,Avenir Light_MSFontService,sans-serif" font-style="normal" font-variant="normal" font-weight="300" font-stretch="normal" font-size="46" text-anchor="start" direction="ltr" writing-mode="lr-tb" unicode-bidi="normal" text-decoration="none" transform="matrix(0.271129 0 0 0.271838 338.657 415)">BAM QC</text><text fill="#000000" fill-opacity="1" font-family="Avenir Light,Avenir Light_MSFontService,sans-serif" font-style="normal" font-variant="normal" font-weight="300" font-stretch="normal" font-size="46" text-anchor="start" direction="ltr" writing-mode="lr-tb" unicode-bidi="normal" text-decoration="none" transform="matrix(0.271129 0 0 0.271838 325.38 430)">ATAC</text><text fill="#000000" fill-opacity="1" font-family="Avenir Light,Avenir Light_MSFontService,sans-serif" font-style="normal" font-variant="normal" font-weight="300" font-stretch="normal" font-size="46" text-anchor="start" direction="ltr" writing-mode="lr-tb" unicode-bidi="normal" text-decoration="none" transform="matrix(0.271129 0 0 0.271838 361.575 430)">peaks / </text><text fill="#000000" fill-opacity="1" font-family="Avenir Light,Avenir Light_MSFontService,sans-serif" font-style="normal" font-variant="normal" font-weight="300" font-stretch="normal" font-size="46" text-anchor="start" direction="ltr" writing-mode="lr-tb" unicode-bidi="normal" text-decoration="none" transform="matrix(0.271129 0 0 0.271838 324.294 444)">featureCounts</text><path d="M538.87 390.202C538.87 386.506 541.861 383.511 545.557 383.511L672.082 383.511C675.778 383.511 678.773 386.506 678.773 390.202L678.773 416.951C678.773 420.647 675.778 423.638 672.082 423.638L545.557 423.638C541.861 423.638 538.87 420.647 538.87 416.951Z" stroke="#FFFFFF" stroke-width="1.86401" stroke-linecap="butt" stroke-linejoin="miter" stroke-miterlimit="8" stroke-opacity="1" fill="#DFEDF9" fill-rule="evenodd" fill-opacity="1" transform="matrix(1 0 0 1.00261 7.86196 -41.7353)"/><text fill="#595959" fill-opacity="1" font-family="Avenir Medium,Avenir Medium_MSFontService,sans-serif" font-style="normal" font-variant="normal" font-weight="500" font-stretch="normal" font-size="48" text-anchor="start" direction="ltr" writing-mode="lr-tb" unicode-bidi="normal" text-decoration="none" transform="matrix(0.271129 0 0 0.271838 568.911 359)">P</text><text fill="#595959" fill-opacity="1" font-family="Avenir Medium,Avenir Medium_MSFontService,sans-serif" font-style="normal" font-variant="normal" font-weight="500" font-stretch="normal" font-size="48" text-anchor="start" direction="ltr" writing-mode="lr-tb" unicode-bidi="normal" text-decoration="none" transform="matrix(0.271129 0 0 0.271838 576.677 359)">hasing &amp; allelic </text><text fill="#595959" fill-opacity="1" font-family="Avenir Medium,Avenir Medium_MSFontService,sans-serif" font-style="normal" font-variant="normal" font-weight="500" font-stretch="normal" font-size="48" text-anchor="start" direction="ltr" writing-mode="lr-tb" unicode-bidi="normal" text-decoration="none" transform="matrix(0.271129 0 0 0.271838 597.026 375)">counts</text><g clip-path="url(#clip9)"><g clip-path="url(#clip10)"><g clip-path="url(#clip11)"><path d="M594.3 436.487C594.176 436.703 594.243 436.979 594.459 437.107 594.617 437.202 594.816 437.192 594.961 437.08 598.64 434.325 602.822 432.312 607.273 431.159 613.593 429.472 623.042 429.128 632.289 436.962 632.293 436.966 632.289 436.969 632.286 436.969 632.286 436.969 632.286 436.969 632.286 436.969L624.152 439.053C623.912 439.121 623.771 439.37 623.838 439.613 623.899 439.846 624.142 439.987 624.378 439.93L633.685 437.546C633.928 437.482 634.073 437.235 634.012 436.996L631.625 427.688C631.561 427.449 631.311 427.307 631.068 427.371 630.832 427.439 630.691 427.675 630.748 427.914L632.889 436.278C632.889 436.278 632.889 436.278 632.889 436.281 632.886 436.281 632.886 436.281 632.883 436.278 623.336 428.184 613.57 428.542 607.037 430.278 602.475 431.465 598.189 433.529 594.418 436.355 594.371 436.389 594.331 436.436 594.3 436.487Z" fill="#000000" fill-rule="nonzero" fill-opacity="1" transform="matrix(1 0 0 1.00261 7.86196 -41.7353)"/></g></g></g><path d="M703.715 390.202C703.715 386.506 706.709 383.511 710.405 383.511L837.2 383.511C840.896 383.511 843.887 386.506 843.887 390.202L843.887 416.951C843.887 420.647 840.896 423.638 837.2 423.638L710.405 423.638C706.709 423.638 703.715 420.647 703.715 416.951Z" stroke="#FFFFFF" stroke-width="1.86401" stroke-linecap="butt" stroke-linejoin="miter" stroke-miterlimit="8" stroke-opacity="1" fill="#DFEDF9" fill-rule="evenodd" fill-opacity="1" transform="matrix(1 0 0 1.00261 7.86196 -41.7353)"/><text fill="#595959" fill-opacity="1" font-family="Avenir Medium,Avenir Medium_MSFontService,sans-serif" font-style="normal" font-variant="normal" font-weight="500" font-stretch="normal" font-size="48" text-anchor="start" direction="ltr" writing-mode="lr-tb" unicode-bidi="normal" text-decoration="none" transform="matrix(0.271129 0 0 0.271838 725.011 359)">Consensus phasing </text><text fill="#595959" fill-opacity="1" font-family="Avenir Medium,Avenir Medium_MSFontService,sans-serif" font-style="normal" font-variant="normal" font-weight="500" font-stretch="normal" font-size="48" text-anchor="start" direction="ltr" writing-mode="lr-tb" unicode-bidi="normal" text-decoration="none" transform="matrix(0.271129 0 0 0.271838 743.114 375)">&amp; annotation</text><text fill="#000000" fill-opacity="1" font-family="Avenir Light,Avenir Light_MSFontService,sans-serif" font-style="normal" font-variant="normal" font-weight="300" font-stretch="normal" font-size="46" text-anchor="start" direction="ltr" writing-mode="lr-tb" unicode-bidi="normal" text-decoration="none" transform="matrix(0.271129 0 0 0.271838 524.393 410)">VC</text><text fill="#000000" fill-opacity="1" font-family="Avenir Light,Avenir Light_MSFontService,sans-serif" font-style="normal" font-variant="normal" font-weight="300" font-stretch="normal" font-size="46" text-anchor="start" direction="ltr" writing-mode="lr-tb" unicode-bidi="normal" text-decoration="none" transform="matrix(0.271129 0 0 0.271838 540.391 410)">F</text><text fill="#000000" fill-opacity="1" font-family="Avenir Light,Avenir Light_MSFontService,sans-serif" font-style="normal" font-variant="normal" font-weight="300" font-stretch="normal" font-size="46" text-anchor="start" direction="ltr" writing-mode="lr-tb" unicode-bidi="normal" text-decoration="none" transform="matrix(0.271129 0 0 0.271838 666.653 412)">Phased VCFs</text><text fill="#000000" fill-opacity="1" font-family="Avenir Light,Avenir Light_MSFontService,sans-serif" font-style="normal" font-variant="normal" font-weight="300" font-stretch="normal" font-size="46" text-anchor="start" direction="ltr" writing-mode="lr-tb" unicode-bidi="normal" text-decoration="none" transform="matrix(0.271129 0 0 0.271838 649.876 428)">Allelic</text><text fill="#000000" fill-opacity="1" font-family="Avenir Light,Avenir Light_MSFontService,sans-serif" font-style="normal" font-variant="normal" font-weight="300" font-stretch="normal" font-size="46" text-anchor="start" direction="ltr" writing-mode="lr-tb" unicode-bidi="normal" text-decoration="none" transform="matrix(0.271129 0 0 0.271838 686.226 428)">count</text><text fill="#000000" fill-opacity="1" font-family="Avenir Light,Avenir Light_MSFontService,sans-serif" font-style="normal" font-variant="normal" font-weight="300" font-stretch="normal" font-size="46" text-anchor="start" direction="ltr" writing-mode="lr-tb" unicode-bidi="normal" text-decoration="none" transform="matrix(0.271129 0 0 0.271838 720.708 428)">matrix</text><g clip-path="url(#clip12)"><g clip-path="url(#clip13)"><g clip-path="url(#clip14)"><path d="M759.26 436.588C759.132 436.804 759.202 437.08 759.415 437.208 759.573 437.303 759.776 437.289 759.921 437.181 763.6 434.426 767.781 432.416 772.229 431.256 778.546 429.574 787.998 429.23 797.245 437.067 797.245 437.067 797.245 437.07 797.245 437.07 797.245 437.07 797.245 437.07 797.242 437.07L789.111 439.154C788.868 439.222 788.727 439.471 788.794 439.711 788.858 439.947 789.098 440.088 789.334 440.031L798.641 437.647C798.884 437.586 799.029 437.34 798.968 437.097L796.581 427.793C796.517 427.55 796.267 427.409 796.028 427.476 795.792 427.54 795.65 427.78 795.707 428.019L797.849 436.375C797.849 436.379 797.845 436.382 797.845 436.382 797.842 436.382 797.842 436.382 797.842 436.382 788.295 428.285 778.529 428.643 771.993 430.383 767.434 431.567 763.148 433.63 759.374 436.456 759.33 436.494 759.29 436.537 759.26 436.588Z" fill="#000000" fill-rule="nonzero" fill-opacity="1" transform="matrix(1 0 0 1.00261 7.86196 -41.7353)"/></g></g></g><text fill="#000000" fill-opacity="1" font-family="Avenir Light,Avenir Light_MSFontService,sans-serif" font-style="normal" font-variant="normal" font-weight="300" font-stretch="normal" font-size="46" text-anchor="start" direction="ltr" writing-mode="lr-tb" unicode-bidi="normal" text-decoration="none" transform="matrix(0.271129 0 0 0.271838 826.315 412)">Biallelic/monoallelic </text><text fill="#000000" fill-opacity="1" font-family="Avenir Light,Avenir Light_MSFontService,sans-serif" font-style="normal" font-variant="normal" font-weight="300" font-stretch="normal" font-size="46" text-anchor="start" direction="ltr" writing-mode="lr-tb" unicode-bidi="normal" text-decoration="none" transform="matrix(0.271129 0 0 0.271838 832.995 428)">genes annotation</text><text fill="#000000" fill-opacity="1" font-family="Avenir Light,Avenir Light_MSFontService,sans-serif" font-style="normal" font-variant="normal" font-weight="300" font-stretch="normal" font-size="46" text-anchor="start" direction="ltr" writing-mode="lr-tb" unicode-bidi="normal" text-decoration="none" transform="matrix(0.271129 0 0 0.271838 825.148 442)">Refined phased VCF</text><text fill="#000000" fill-opacity="1" font-family="Avenir Light,Avenir Light_MSFontService,sans-serif" font-style="normal" font-variant="normal" font-weight="300" font-stretch="normal" font-size="46" text-anchor="start" direction="ltr" writing-mode="lr-tb" unicode-bidi="normal" text-decoration="none" transform="matrix(0.271129 0 0 0.271838 852.798 457)">Extra stat</text><text fill="#000000" fill-opacity="1" font-family="Avenir Light,Avenir Light_MSFontService,sans-serif" font-style="normal" font-variant="normal" font-weight="300" font-stretch="normal" font-size="46" text-anchor="start" direction="ltr" writing-mode="lr-tb" unicode-bidi="normal" text-decoration="none" transform="matrix(0.271129 0 0 0.271838 904.37 457)">s</text><text fill="#000000" fill-opacity="1" font-family="Avenir Light,Avenir Light_MSFontService,sans-serif" font-style="normal" font-variant="normal" font-weight="300" font-stretch="normal" font-size="46" text-anchor="start" direction="ltr" writing-mode="lr-tb" unicode-bidi="normal" text-decoration="none" transform="matrix(0.271129 0 0 0.271838 92.706 473)">WES FASTQ</text><text fill="#000000" fill-opacity="1" font-family="Avenir Light,Avenir Light_MSFontService,sans-serif" font-style="normal" font-variant="normal" font-weight="300" font-stretch="normal" font-size="46" text-anchor="start" direction="ltr" writing-mode="lr-tb" unicode-bidi="normal" text-decoration="none" transform="matrix(0.271129 0 0 0.271838 404.653 473)">Extra SNPs VCF</text><path d="M0.310668-8.48211e-07 0.310676 2.48535-0.310662 2.48535-0.310668 8.48211e-07ZM0.310681 4.34936 0.310687 6.83471-0.310649 6.83471-0.310657 4.34936ZM0.310692 8.69871 0.3107 11.1841-0.310638 11.1841-0.310646 8.69871ZM0.310703 13.0481 0.310711 15.5335-0.310627 15.5335-0.310633 13.0481ZM0.310717 17.3975 0.310722 19.8828-0.310613 19.8828-0.310622 17.3975ZM0.310727 21.7468 0.310735 24.2322-0.310603 24.2322-0.310608 21.7468ZM0.310741 26.0962 0.310746 28.5816-0.310592 28.5816-0.310597 26.0962ZM0.310752 30.4456 0.31076 32.9308-0.310578 32.9308-0.310586 30.4456ZM0.310763 34.7947 0.310765 35.2233-0.310573 35.2233-0.310573 34.7947ZM4.61779 27.9236 9.78921e-05 35.8398-4.61762 27.9238C-4.70409 27.7755-4.65404 27.5852-4.5058 27.4987-4.35762 27.4125-4.16739 27.4624-4.08092 27.6107L0.268445 35.0669-0.268254 35.0669 4.08109 27.6107C4.16755 27.4624 4.35779 27.4122 4.50596 27.4987 4.65418 27.5852 4.70426 27.7755 4.61779 27.9236Z" fill="#000000" fill-rule="nonzero" fill-opacity="1" transform="matrix(1 0 0 -1.00261 447.906 458.497)"/><path d="M0.310668-8.48211e-07 0.310676 2.48535-0.310662 2.48535-0.310668 8.48211e-07ZM0.310681 4.34936 0.310687 6.83471-0.310649 6.83471-0.310657 4.34936ZM0.310692 8.69871 0.3107 11.1841-0.310638 11.1841-0.310646 8.69871ZM0.310703 13.0481 0.310711 15.5335-0.310627 15.5335-0.310633 13.0481ZM0.310717 17.3975 0.310722 19.8828-0.310613 19.8828-0.310622 17.3975ZM0.310727 21.7468 0.310735 24.2322-0.310603 24.2322-0.310608 21.7468ZM0.310741 26.0962 0.310746 28.5816-0.310592 28.5816-0.310597 26.0962ZM0.310752 30.4456 0.31076 32.9308-0.310578 32.9308-0.310586 30.4456ZM0.310763 34.7947 0.310765 35.2233-0.310573 35.2233-0.310573 34.7947ZM4.61779 27.9236 9.78921e-05 35.8398-4.61762 27.9238C-4.70409 27.7755-4.65404 27.5852-4.5058 27.4987-4.35762 27.4125-4.16739 27.4624-4.08092 27.6107L0.268445 35.0669-0.268254 35.0669 4.08109 27.6107C4.16755 27.4624 4.35779 27.4122 4.50596 27.4987 4.65418 27.5852 4.70426 27.7755 4.61779 27.9236Z" fill="#000000" fill-rule="nonzero" fill-opacity="1" transform="matrix(1 0 0 -1.00261 127.43 459.311)"/></g></g></g></g><text fill="#595959" fill-opacity="1" font-family="Avenir Light,Avenir Light_MSFontService,sans-serif" font-style="normal" font-variant="normal" font-weight="300" font-stretch="normal" font-size="41" text-anchor="start" direction="ltr" writing-mode="lr-tb" unicode-bidi="normal" text-decoration="none" transform="matrix(0.33723 0 0 0.337875 107.503 321)">Hisat2</text><text fill="#595959" fill-opacity="1" font-family="Avenir Light,Avenir Light_MSFontService,sans-serif" font-style="normal" font-variant="normal" font-weight="300" font-stretch="normal" font-size="41" text-anchor="start" direction="ltr" writing-mode="lr-tb" unicode-bidi="normal" text-decoration="none" transform="matrix(0.33723 0 0 0.337875 255.032 255)">MACS</text><text fill="#595959" fill-opacity="1" font-family="Avenir Light,Avenir Light_MSFontService,sans-serif" font-style="normal" font-variant="normal" font-weight="300" font-stretch="normal" font-size="41" text-anchor="start" direction="ltr" writing-mode="lr-tb" unicode-bidi="normal" text-decoration="none" transform="matrix(0.33723 0 0 0.337875 255.032 272)">Salmon</text><text fill="#595959" fill-opacity="1" font-family="Avenir Light,Avenir Light_MSFontService,sans-serif" font-style="normal" font-variant="normal" font-weight="300" font-stretch="normal" font-size="41" text-anchor="start" direction="ltr" writing-mode="lr-tb" unicode-bidi="normal" text-decoration="none" transform="matrix(0.33723 0 0 0.337875 255.032 289)">GATK</text><text fill="#595959" fill-opacity="1" font-family="Avenir Light,Avenir Light_MSFontService,sans-serif" font-style="normal" font-variant="normal" font-weight="300" font-stretch="normal" font-size="41" text-anchor="start" direction="ltr" writing-mode="lr-tb" unicode-bidi="normal" text-decoration="none" transform="matrix(0.33723 0 0 0.337875 255.032 306)">Samtools</text><text fill="#595959" fill-opacity="1" font-family="Avenir Light,Avenir Light_MSFontService,sans-serif" font-style="normal" font-variant="normal" font-weight="300" font-stretch="normal" font-size="41" text-anchor="start" direction="ltr" writing-mode="lr-tb" unicode-bidi="normal" text-decoration="none" transform="matrix(0.33723 0 0 0.337875 255.032 322)">…</text><text fill="#595959" fill-opacity="1" font-family="Avenir Light,Avenir Light_MSFontService,sans-serif" font-style="normal" font-variant="normal" font-weight="300" font-stretch="normal" font-size="41" text-anchor="start" direction="ltr" writing-mode="lr-tb" unicode-bidi="normal" text-decoration="none" transform="matrix(0.33723 0 0 0.337875 419.525 269)">BCFtool</text><text fill="#595959" fill-opacity="1" font-family="Avenir Light,Avenir Light_MSFontService,sans-serif" font-style="normal" font-variant="normal" font-weight="300" font-stretch="normal" font-size="41" text-anchor="start" direction="ltr" writing-mode="lr-tb" unicode-bidi="normal" text-decoration="none" transform="matrix(0.33723 0 0 0.337875 470.338 269)">s</text><text fill="#595959" fill-opacity="1" font-family="Avenir Light,Avenir Light_MSFontService,sans-serif" font-style="normal" font-variant="normal" font-weight="300" font-stretch="normal" font-size="41" text-anchor="start" direction="ltr" writing-mode="lr-tb" unicode-bidi="normal" text-decoration="none" transform="matrix(0.33723 0 0 0.337875 419.525 286)">GATK</text><text fill="#595959" fill-opacity="1" font-family="Avenir Light,Avenir Light_MSFontService,sans-serif" font-style="normal" font-variant="normal" font-weight="300" font-stretch="normal" font-size="41" text-anchor="start" direction="ltr" writing-mode="lr-tb" unicode-bidi="normal" text-decoration="none" transform="matrix(0.33723 0 0 0.337875 419.525 303)">Strelka</text><text fill="#595959" fill-opacity="1" font-family="Avenir Light,Avenir Light_MSFontService,sans-serif" font-style="normal" font-variant="normal" font-weight="300" font-stretch="normal" font-size="41" text-anchor="start" direction="ltr" writing-mode="lr-tb" unicode-bidi="normal" text-decoration="none" transform="matrix(0.33723 0 0 0.337875 419.525 320)">…</text><text fill="#595959" fill-opacity="1" font-family="Avenir Light,Avenir Light_MSFontService,sans-serif" font-style="normal" font-variant="normal" font-weight="300" font-stretch="normal" font-size="41" text-anchor="start" direction="ltr" writing-mode="lr-tb" unicode-bidi="normal" text-decoration="none" transform="matrix(0.33723 0 0 0.337875 580.805 255)">Shapeit4</text><text fill="#595959" fill-opacity="1" font-family="Avenir Light,Avenir Light_MSFontService,sans-serif" font-style="normal" font-variant="normal" font-weight="300" font-stretch="normal" font-size="41" text-anchor="start" direction="ltr" writing-mode="lr-tb" unicode-bidi="normal" text-decoration="none" transform="matrix(0.33723 0 0 0.337875 580.805 272)">WhatsHap</text><text fill="#595959" fill-opacity="1" font-family="Avenir Light,Avenir Light_MSFontService,sans-serif" font-style="normal" font-variant="normal" font-weight="300" font-stretch="normal" font-size="41" text-anchor="start" direction="ltr" writing-mode="lr-tb" unicode-bidi="normal" text-decoration="none" transform="matrix(0.33723 0 0 0.337875 580.805 289)">HapTree</text><text fill="#595959" fill-opacity="1" font-family="Avenir Light,Avenir Light_MSFontService,sans-serif" font-style="normal" font-variant="normal" font-weight="300" font-stretch="normal" font-size="41" text-anchor="start" direction="ltr" writing-mode="lr-tb" unicode-bidi="normal" text-decoration="none" transform="matrix(0.33723 0 0 0.337875 634.515 289)">-</text><text fill="#595959" fill-opacity="1" font-family="Avenir Light,Avenir Light_MSFontService,sans-serif" font-style="normal" font-variant="normal" font-weight="300" font-stretch="normal" font-size="41" text-anchor="start" direction="ltr" writing-mode="lr-tb" unicode-bidi="normal" text-decoration="none" transform="matrix(0.33723 0 0 0.337875 639.152 289)">X</text><text fill="#595959" fill-opacity="1" font-family="Avenir Light,Avenir Light_MSFontService,sans-serif" font-style="normal" font-variant="normal" font-weight="300" font-stretch="normal" font-size="41" text-anchor="start" direction="ltr" writing-mode="lr-tb" unicode-bidi="normal" text-decoration="none" transform="matrix(0.33723 0 0 0.337875 580.805 306)">GATK</text><text fill="#595959" fill-opacity="1" font-family="Avenir Light,Avenir Light_MSFontService,sans-serif" font-style="normal" font-variant="normal" font-weight="300" font-stretch="normal" font-size="41" text-anchor="start" direction="ltr" writing-mode="lr-tb" unicode-bidi="normal" text-decoration="none" transform="matrix(0.33723 0 0 0.337875 580.805 322)">…</text><text fill="#595959" fill-opacity="1" font-family="Avenir Light,Avenir Light_MSFontService,sans-serif" font-style="normal" font-variant="normal" font-weight="300" font-stretch="normal" font-size="41" text-anchor="start" direction="ltr" writing-mode="lr-tb" unicode-bidi="normal" text-decoration="none" transform="matrix(0.33723 0 0 0.337875 744.995 320)">R package</text><text fill="#385723" fill-opacity="1" font-family="Avenir Medium,Avenir Medium_MSFontService,sans-serif" font-style="normal" font-variant="normal" font-weight="500" font-stretch="normal" font-size="55" text-anchor="start" direction="ltr" writing-mode="lr-tb" unicode-bidi="normal" text-decoration="none" transform="matrix(0.33723 0 0 0.337875 795.934 261)">Tools</text></g></g></svg>
